<svg width="2938" height="1028" viewBox="0 0 2938 1028" fill="none" xmlns="http://www.w3.org/2000/svg">
<g clip-path="url(#clip0_3_141)">
<g clip-path="url(#clip1_3_141)">
<path d="M514.054 1028.04C797.957 1028.04 1028.11 797.905 1028.11 514.02C1028.11 230.135 797.957 0 514.054 0C230.15 0 0 230.135 0 514.02C0 797.905 230.15 1028.04 514.054 1028.04Z" fill="black"/>
<path d="M635.061 238.407L491.436 549.72L389.659 329.13H190.158V359.689H336.445L329.808 374.035L171.559 717.059H370.106V686.5H219.328L370.106 359.689L376.743 374.035L476.096 589.458H370.146V620.018H635.101V589.458H506.776L635.101 311.327L808.174 686.5H752.02V717.059H855.904L635.061 238.367V238.407Z" fill="white"/>
</g>
<path d="M1593.71 636.699V693.399H1286.95V648.606L1498.73 390.055H1290.35V333.355H1587.19V378.148L1375.4 636.699H1593.71Z" fill="white"/>
<path d="M2036 542.577L1979.02 601.262V693.399H1912.11V333.355H1979.02V517.913L2156.78 333.355H2231.91L2080.8 494.383L2241.27 693.399H2163.02L2036 542.577Z" fill="white"/>
<path d="M2874.64 693.399L2874.07 454.692L2755.85 652.291H2726.08L2607.85 457.811V693.399H2544.06V333.355H2599.06L2741.96 572.061L2882.3 333.355H2937.58L2937.87 693.399H2874.64Z" fill="white"/>
</g>
<defs>
<clipPath id="clip0_3_141">
<rect width="2938" height="1028" fill="white"/>
</clipPath>
<clipPath id="clip1_3_141">
<rect width="1028.07" height="1028" fill="white"/>
</clipPath>
</defs>
</svg>
